<?xml version="1.0" standalone="no"?>
<!DOCTYPE svg PUBLIC "-//W3C//DTD SVG 20010904//EN"
 "http://www.w3.org/TR/2001/REC-SVG-20010904/DTD/svg10.dtd">
<svg version="1.0" xmlns="http://www.w3.org/2000/svg"
 width="1300.000000pt" height="1300.000000pt" viewBox="0 0 1300.000000 1300.000000"
 preserveAspectRatio="xMidYMid meet">
<metadata>
Created by potrace 1.11, written by Peter Selinger 2001-2013
</metadata>
<g transform="translate(0.000000,1300.000000) scale(0.100000,-0.100000)"
fill="#000000" stroke="none">
<path d="M688 12339 c-17 -9 -18 -298 -18 -5834 0 -5281 1 -5825 16 -5839 14
-15 556 -16 5810 -16 3976 0 5801 3 5815 10 19 11 19 87 19 5840 0 5753 0
5829 -19 5840 -27 14 -11599 14 -11623 -1z m11542 -5839 l0 -5750 -5570 0
c-3063 0 -5570 2 -5570 4 0 2 37 25 82 51 46 27 108 63 138 80 30 18 93 54
140 80 47 26 135 76 195 110 61 33 220 124 355 202 135 77 265 151 290 165 25
14 68 39 96 56 28 16 78 45 110 63 83 45 675 383 754 429 36 21 94 54 129 74
l65 35 62 -58 c95 -89 201 -131 332 -131 151 0 278 61 374 179 23 28 45 51 49
51 4 0 69 -27 146 -61 76 -34 172 -76 213 -94 41 -18 172 -76 290 -128 186
-82 350 -154 690 -302 41 -19 111 -49 155 -69 l80 -35 7 -49 c27 -181 164
-340 339 -393 90 -27 215 -23 302 11 186 71 307 251 307 454 l0 81 100 75 c55
41 169 127 253 190 85 63 166 124 181 135 16 11 83 61 150 111 66 50 236 176
376 280 570 425 755 563 1185 884 248 185 576 430 730 544 154 115 285 213
292 218 15 12 22 8 713 -391 69 -40 130 -73 135 -74 6 -1 12 -5 15 -9 5 -7
247 -148 460 -268 36 -20 94 -54 130 -75 152 -89 189 -106 208 -96 23 12 112
161 112 188 0 11 -8 27 -17 35 -10 9 -157 96 -328 193 -170 98 -384 221 -475
273 -91 52 -185 106 -210 120 -25 14 -61 35 -80 47 -19 12 -101 60 -183 106
-81 46 -184 105 -230 131 -228 132 -247 141 -272 130 -12 -6 -85 -57 -161
-114 -188 -141 -1200 -896 -1733 -1293 -118 -88 -335 -250 -483 -360 -147
-110 -322 -240 -388 -289 -66 -49 -117 -93 -113 -99 3 -6 1 -7 -5 -3 -6 3
-117 -73 -246 -170 l-236 -176 -40 36 c-91 82 -213 121 -351 114 -74 -5 -100
-11 -163 -41 -73 -34 -157 -105 -202 -170 l-19 -27 -148 66 c-129 58 -150 64
-165 53 -15 -12 -16 -12 -4 2 11 14 8 19 -25 32 -21 8 -63 26 -93 40 -30 13
-134 59 -230 102 -96 42 -218 96 -270 120 -52 24 -153 69 -225 100 -71 31
-148 65 -170 76 -22 10 -85 38 -139 62 l-100 44 -20 84 c-37 150 -123 257
-262 325 -68 34 -86 39 -171 42 -118 5 -197 -11 -271 -55 -146 -88 -242 -242
-242 -391 0 -34 -6 -50 -24 -66 -13 -11 -28 -22 -35 -24 -10 -2 -578 -322
-731 -412 -36 -21 -148 -85 -250 -143 -188 -106 -701 -399 -820 -468 -36 -21
-85 -49 -110 -62 -25 -13 -61 -33 -80 -45 -51 -32 -55 -27 -17 20 33 42 234
295 458 578 63 80 209 264 324 409 116 145 284 357 373 470 90 113 193 242
228 286 35 44 106 134 159 200 52 66 122 154 155 195 33 41 91 116 130 165 39
50 96 122 128 161 l57 71 60 -28 c33 -16 94 -34 135 -40 142 -22 303 34 408
142 l57 58 135 -73 c219 -119 1009 -543 1502 -807 l457 -244 1 -42 c0 -91 90
-297 120 -278 5 3 7 0 4 -8 -8 -21 68 -82 155 -125 74 -37 76 -37 200 -37 125
0 127 0 204 37 105 51 185 130 234 235 34 70 38 88 41 174 3 68 0 112 -11 149
l-16 53 87 96 c48 53 136 150 197 216 134 146 493 539 555 609 50 56 349 385
415 456 23 25 84 93 136 151 104 117 261 290 299 330 30 30 80 86 215 234 55
60 152 166 215 235 63 69 223 245 355 390 132 146 294 324 360 395 318 346
358 394 344 413 -13 15 -12 16 4 3 10 -8 21 -10 26 -5 5 5 43 47 84 93 42 46
74 87 71 92 -3 5 0 8 8 7 7 -2 12 3 10 10 -1 8 1 11 6 8 5 -3 19 9 32 26 13
18 67 77 120 132 53 56 137 146 186 201 49 54 143 158 209 230 66 71 141 153
165 181 25 27 158 174 295 325 138 151 286 315 330 364 44 49 115 126 158 172
42 45 77 90 77 100 0 23 -145 163 -168 163 -23 -1 -38 -14 -103 -86 -72 -80
-641 -705 -700 -769 -53 -57 -317 -348 -524 -576 -77 -85 -142 -156 -145 -159
-4 -3 -75 -81 -160 -175 -84 -93 -181 -199 -214 -235 -34 -36 -100 -108 -147
-160 -47 -52 -132 -146 -190 -209 -171 -188 -429 -472 -478 -526 -24 -27 -70
-77 -101 -110 -49 -53 -284 -311 -553 -610 -50 -55 -132 -145 -182 -200 -253
-276 -320 -349 -421 -460 -60 -66 -127 -140 -149 -165 -22 -24 -71 -78 -110
-120 -38 -41 -158 -172 -265 -289 -307 -338 -401 -441 -461 -505 l-56 -59 -44
26 c-76 44 -150 60 -258 55 -147 -7 -231 -45 -333 -151 l-48 -49 -32 20 c-18
11 -175 95 -348 187 -173 93 -479 257 -680 365 -201 108 -414 223 -475 255
-209 110 -500 267 -533 287 -29 18 -32 24 -32 68 0 107 -61 233 -153 316 -282
253 -731 97 -798 -278 -13 -71 -6 -148 22 -244 l12 -41 -213 -269 c-118 -148
-258 -324 -312 -391 -54 -68 -98 -127 -98 -132 0 -5 -4 -11 -9 -13 -8 -3 -139
-165 -441 -547 -80 -101 -226 -286 -325 -410 -99 -125 -238 -300 -309 -389
-70 -89 -130 -162 -132 -162 -4 0 16 46 66 155 18 39 82 180 142 315 60 135
138 308 173 385 62 138 265 591 392 874 35 79 62 149 59 157 -3 8 -1 13 5 11
5 -1 28 39 50 88 48 107 91 203 362 805 112 250 262 583 332 740 108 241 191
426 285 635 110 243 286 638 297 665 l14 36 87 0 c51 0 113 8 150 18 59 16 66
16 88 1 14 -9 147 -111 295 -228 149 -117 286 -223 304 -237 18 -14 50 -38 71
-55 21 -16 163 -127 315 -245 325 -253 629 -490 970 -757 l247 -192 4 -113 c3
-106 6 -118 40 -189 69 -142 205 -245 357 -271 213 -37 436 88 523 292 28 67
32 86 32 175 1 82 -3 111 -22 161 l-24 62 84 108 c85 110 150 195 377 494 69
91 158 208 198 260 40 52 139 183 221 290 81 107 179 235 217 285 39 49 77
100 85 111 8 12 40 55 72 95 31 41 95 126 143 189 49 63 143 187 210 275 321
421 472 619 615 806 149 196 218 285 456 599 232 305 363 477 486 638 318 417
514 675 523 690 6 9 13 19 16 22 8 6 208 267 449 585 165 217 252 331 447 585
194 254 223 295 223 321 0 22 -15 38 -84 88 -46 33 -91 61 -98 61 -20 0 -49
-33 -179 -205 -314 -416 -426 -562 -619 -815 -69 -91 -189 -248 -266 -350 -77
-102 -192 -252 -255 -333 -63 -82 -124 -163 -137 -180 -26 -38 -54 -74 -309
-409 -106 -139 -241 -316 -299 -393 -59 -77 -150 -196 -202 -265 -53 -69 -145
-190 -206 -270 -61 -80 -141 -185 -179 -235 -78 -102 -180 -236 -464 -611
-221 -291 -347 -456 -471 -619 -47 -60 -122 -159 -168 -220 -186 -245 -328
-431 -434 -570 -61 -80 -109 -152 -107 -159 3 -8 -1 -13 -8 -12 -13 1 -109
-121 -382 -484 -64 -85 -119 -159 -123 -163 -4 -4 -49 6 -101 24 -84 28 -102
31 -184 27 -106 -6 -191 -36 -273 -98 l-53 -41 -32 23 c-18 12 -77 58 -132
101 -219 172 -259 203 -290 227 -90 69 -123 95 -288 225 -99 77 -191 149 -205
160 -15 11 -79 60 -142 110 -63 49 -132 104 -154 120 -46 36 -108 85 -287 225
-74 58 -166 130 -206 160 -237 182 -413 323 -413 330 0 4 12 34 28 66 25 55
27 68 27 185 l0 126 -43 86 c-102 205 -325 308 -546 251 -177 -46 -307 -180
-346 -355 -25 -111 6 -303 56 -353 8 -8 14 -19 14 -23 0 -5 16 -26 35 -48 l36
-38 -77 -171 c-42 -94 -97 -213 -120 -265 -24 -51 -44 -95 -44 -96 0 -2 -13
-32 -29 -67 -16 -35 -59 -130 -96 -213 -37 -82 -98 -217 -135 -300 -38 -82
-106 -235 -153 -340 -214 -480 -318 -712 -332 -740 -8 -16 -58 -127 -111 -245
-53 -118 -120 -270 -151 -337 -30 -68 -51 -128 -47 -134 4 -7 3 -9 -3 -6 -6 4
-31 -41 -58 -101 -90 -203 -187 -417 -250 -557 -65 -144 -149 -331 -262 -585
-73 -163 -195 -434 -223 -495 -10 -22 -37 -83 -60 -135 -61 -137 -82 -181 -85
-178 -2 2 0 23 5 48 5 25 22 140 40 255 17 116 44 298 60 405 70 468 102 678
130 870 17 113 47 309 65 435 19 127 51 336 70 465 20 129 49 325 65 435 16
110 43 290 59 400 17 110 46 306 65 435 20 129 51 339 71 465 19 127 46 309
60 405 14 96 32 216 40 265 8 50 38 243 65 430 28 187 66 446 86 575 48 321
111 742 131 877 l16 112 63 31 c111 55 206 161 243 273 7 20 16 37 21 37 5 0
114 7 242 15 236 15 620 39 1208 75 439 27 406 28 415 -17 20 -106 127 -243
230 -296 172 -86 368 -74 512 34 29 21 57 39 62 39 5 0 52 -35 103 -78 51 -43
192 -158 313 -257 121 -99 228 -187 239 -196 20 -16 20 -17 -6 -75 -156 -350
119 -730 493 -683 281 35 475 320 404 594 -23 85 -62 151 -133 225 l-63 65 55
240 c31 132 103 447 161 700 58 253 116 507 130 565 72 304 135 591 133 602
-2 9 23 15 87 19 149 11 239 53 331 152 87 94 134 211 134 335 0 41 -1 43 -17
31 -16 -13 -17 -12 -4 3 7 10 16 16 20 14 4 -3 70 9 147 25 76 17 191 41 254
54 63 13 297 63 520 110 223 47 565 120 760 161 424 89 457 98 465 123 11 36
-37 216 -60 225 -8 3 -99 -13 -202 -35 -104 -22 -251 -53 -328 -69 -162 -34
-267 -56 -845 -179 -234 -49 -456 -96 -495 -105 -38 -8 -125 -26 -193 -41
l-123 -26 -53 48 c-167 152 -412 171 -596 47 -75 -50 -120 -101 -159 -181 -88
-179 -59 -388 74 -540 l46 -52 -70 -303 c-38 -167 -100 -431 -136 -588 -97
-416 -264 -1136 -279 -1200 l-12 -55 -70 -10 c-38 -6 -86 -17 -106 -25 -42
-16 -34 -20 -201 118 -51 42 -171 140 -266 217 -233 189 -326 267 -326 274 1
3 5 27 9 52 12 68 -9 182 -47 258 -66 134 -207 238 -358 262 -190 31 -390 -68
-493 -244 -26 -44 -31 -47 -69 -47 -23 0 -107 -5 -187 -10 -80 -5 -185 -12
-235 -15 -49 -3 -196 -12 -325 -21 -562 -35 -1038 -64 -1071 -64 -33 0 -38 4
-52 38 -8 20 -35 64 -60 97 -78 104 -188 167 -324 187 -69 10 -90 9 -154 -6
-232 -56 -379 -237 -379 -465 0 -135 39 -236 126 -331 52 -55 171 -130 208
-130 9 0 16 -6 16 -14 0 -7 -36 -254 -80 -547 -44 -294 -94 -624 -110 -734
-16 -110 -45 -306 -65 -435 -19 -129 -51 -341 -70 -470 -19 -129 -48 -326 -65
-437 -17 -112 -44 -292 -60 -400 -16 -109 -37 -245 -45 -303 -9 -58 -20 -134
-25 -170 -5 -36 -18 -126 -29 -200 -12 -74 -26 -166 -31 -205 -5 -38 -14 -97
-19 -130 -5 -33 -62 -409 -125 -835 -153 -1020 -191 -1268 -225 -1490 l-29
-185 -1 5138 -1 5137 5730 0 5730 0 0 -5750z m-2797 5034 c2 -14 0 -27 -7 -30
-11 -4 -411 -90 -646 -139 -133 -27 -277 -58 -545 -115 -104 -22 -253 -54
-330 -70 -77 -16 -194 -41 -260 -56 -66 -14 -168 -36 -228 -48 -59 -13 -111
-26 -115 -30 -4 -4 -7 -43 -7 -86 l0 -79 25 22 25 22 -26 -30 c-14 -17 -31
-52 -38 -80 -25 -100 -107 -195 -210 -244 -50 -23 -68 -26 -169 -26 -87 -1
-115 -4 -122 -15 -11 -17 -40 -146 -43 -187 -1 -15 -5 -30 -8 -33 -4 -3 -19
-59 -34 -125 -29 -128 -71 -312 -129 -565 -20 -85 -49 -213 -66 -285 -16 -71
-45 -197 -64 -280 -19 -82 -60 -260 -90 -395 -31 -135 -63 -270 -71 -301 -23
-85 -21 -93 35 -134 61 -45 102 -96 138 -172 23 -50 27 -71 27 -148 0 -80 -4
-97 -31 -155 -38 -80 -106 -150 -182 -187 -51 -25 -67 -28 -162 -28 -95 0
-110 3 -160 28 -109 56 -187 159 -211 279 -17 86 -4 157 47 255 33 64 42 89
34 102 -5 10 -42 45 -82 77 -78 63 -258 210 -508 414 -167 137 -199 160 -218
160 -7 0 -32 -20 -54 -45 -24 -27 -69 -59 -107 -78 -61 -30 -73 -32 -166 -32
-88 1 -107 4 -156 28 -119 58 -202 167 -216 285 -10 84 -9 84 -268 67 -121 -8
-407 -26 -635 -40 -228 -13 -518 -31 -645 -39 -126 -8 -282 -18 -345 -21 -63
-4 -123 -9 -132 -11 -10 -3 -23 -24 -32 -52 -44 -148 -117 -232 -241 -277 -67
-25 -71 -29 -78 -78 -4 -23 -22 -148 -42 -277 -19 -129 -51 -338 -70 -465 -19
-126 -48 -322 -65 -435 -55 -369 -88 -589 -144 -965 -31 -203 -67 -444 -81
-535 -50 -332 -84 -558 -100 -675 -8 -66 -22 -158 -30 -205 -8 -47 -33 -206
-55 -355 -59 -401 -98 -661 -125 -840 -14 -88 -47 -313 -75 -500 -93 -623
-161 -1074 -231 -1535 -68 -453 -74 -506 -60 -524 22 -27 59 -20 80 16 11 17
84 173 162 347 150 335 269 599 300 667 10 23 47 106 82 185 36 79 144 322
242 539 98 217 202 448 231 514 30 65 51 124 47 130 -3 6 -2 8 2 4 5 -5 26 31
47 80 22 48 68 150 103 227 34 77 92 205 127 285 36 80 125 278 198 440 73
162 162 360 198 440 196 439 315 702 357 794 22 49 126 281 217 486 12 25 36
78 55 119 55 118 55 120 -13 195 l-59 64 -30 -26 -30 -27 30 33 c23 26 27 36
19 50 -44 70 -43 237 1 329 150 306 607 270 702 -56 30 -104 9 -247 -47 -323
-38 -52 -29 -69 84 -160 57 -46 157 -124 222 -175 66 -50 166 -129 224 -174
58 -46 126 -99 151 -118 25 -20 95 -74 155 -121 60 -47 125 -97 144 -112 19
-14 96 -74 170 -132 155 -122 202 -159 320 -250 47 -37 110 -86 140 -110 30
-24 183 -143 339 -265 307 -239 319 -246 358 -193 30 41 119 97 182 116 100
29 228 14 311 -39 67 -43 78 -37 166 78 43 56 99 129 124 162 26 33 97 128
160 210 63 83 227 299 365 480 138 182 308 404 377 495 69 91 166 219 217 285
50 66 142 188 205 270 63 83 175 231 251 330 75 99 182 239 236 310 54 72 147
193 205 270 117 153 334 439 483 635 52 69 123 162 158 208 151 197 293 384
508 667 71 94 180 236 241 317 62 80 110 149 106 152 -3 3 -1 6 5 6 6 0 73 82
149 183 76 100 181 238 233 307 52 69 113 148 135 177 23 28 48 62 57 75 9 13
79 104 154 203 75 99 182 240 237 313 55 72 106 132 113 132 6 0 19 -8 29 -18
18 -20 30 -2 -189 -287 -33 -44 -119 -156 -190 -250 -71 -93 -167 -219 -213
-280 -46 -60 -129 -168 -183 -240 -54 -71 -140 -183 -189 -248 -79 -103 -89
-121 -78 -135 11 -15 11 -15 -3 -4 -15 11 -31 -6 -132 -140 -64 -84 -159 -209
-211 -278 -53 -69 -168 -219 -256 -335 -88 -115 -216 -284 -286 -375 -69 -91
-184 -241 -255 -335 -71 -93 -194 -255 -274 -360 -80 -104 -220 -289 -312
-410 -92 -121 -207 -272 -255 -335 -48 -63 -158 -207 -244 -320 -86 -113 -201
-263 -255 -335 -54 -71 -131 -173 -172 -225 -40 -52 -122 -160 -183 -240 -61
-80 -211 -278 -335 -440 -124 -162 -290 -380 -369 -485 -79 -104 -159 -209
-177 -233 -18 -24 -33 -48 -33 -54 0 -7 12 -41 27 -77 85 -207 -19 -436 -231
-507 -177 -60 -374 24 -458 194 -32 64 -33 72 -33 184 0 104 -2 120 -20 137
-11 10 -94 77 -185 147 -91 70 -318 247 -505 393 -187 146 -361 281 -386 301
-122 93 -982 764 -1104 861 -123 97 -115 94 -188 66 -83 -33 -143 -40 -217
-27 -37 7 -66 7 -76 2 -22 -12 -236 -490 -228 -505 4 -7 4 -9 -1 -5 -5 5 -39
-61 -77 -145 -38 -83 -75 -165 -83 -182 -7 -16 -34 -77 -60 -135 -26 -58 -55
-123 -65 -145 -10 -22 -57 -128 -105 -235 -48 -107 -136 -303 -195 -435 -60
-132 -158 -352 -220 -490 -61 -137 -120 -268 -130 -290 -161 -348 -200 -441
-186 -455 8 -8 7 -10 -6 -5 -11 5 -18 0 -24 -17 -4 -13 -24 -59 -44 -103 -38
-81 -51 -111 -290 -645 -73 -162 -164 -365 -202 -450 -38 -85 -97 -216 -130
-290 -33 -74 -91 -202 -128 -285 -246 -545 -245 -541 -199 -566 29 -15 53 3
124 96 33 42 85 107 115 144 30 36 93 115 140 175 47 59 195 246 328 415 134
168 281 352 325 409 45 57 129 163 187 235 307 387 301 378 288 396 -11 14
-11 14 3 4 14 -11 38 15 180 194 90 114 230 291 312 393 81 102 159 202 174
223 l26 38 -20 42 c-30 62 -46 151 -38 213 9 76 66 184 123 235 135 120 329
132 474 30 102 -71 158 -179 162 -308 1 -40 6 -76 11 -81 9 -8 549 -299 810
-437 50 -26 149 -79 220 -118 72 -39 182 -98 245 -132 63 -34 176 -95 250
-135 212 -114 264 -142 440 -235 91 -48 180 -96 197 -107 44 -26 73 -20 101
22 41 62 103 119 161 147 51 25 66 28 166 28 119 0 145 -8 241 -77 24 -17 47
-26 56 -23 14 6 141 143 629 680 25 27 124 136 219 240 95 105 229 253 299
329 69 76 136 149 148 161 11 12 42 46 69 76 26 30 86 97 134 149 48 52 113
124 145 160 32 36 63 70 69 75 6 6 47 50 91 100 44 49 87 97 96 105 9 8 86 92
170 185 85 94 159 175 165 181 6 7 73 81 150 165 76 84 189 207 250 274 60 66
206 226 323 355 118 129 236 260 264 290 28 30 92 100 141 155 50 55 113 125
142 155 67 73 150 164 314 345 74 82 213 235 309 339 96 105 211 232 256 281
45 50 158 173 251 275 93 102 199 219 235 259 60 68 67 73 88 62 12 -7 21 -18
19 -26 -2 -7 -86 -105 -188 -217 -102 -111 -234 -257 -294 -323 -113 -124
-257 -282 -361 -395 -33 -36 -99 -108 -146 -160 -159 -176 -622 -685 -667
-733 -44 -48 -44 -48 -25 -70 18 -22 18 -22 -3 -4 -22 18 -23 17 -220 -200
-230 -253 -268 -295 -349 -383 -34 -36 -127 -138 -208 -227 -139 -153 -181
-207 -119 -152 27 24 27 23 -2 -8 -16 -18 -32 -30 -36 -28 -4 2 -20 -10 -36
-28 -25 -27 -25 -29 -4 -12 l25 20 -19 -22 c-10 -13 -22 -20 -27 -18 -4 3 -16
-6 -27 -20 -11 -14 -61 -69 -110 -123 -49 -53 -116 -127 -148 -164 -77 -88
-321 -356 -400 -438 -51 -54 -622 -681 -814 -895 -30 -33 -104 -114 -165 -180
-61 -66 -170 -185 -241 -265 -72 -80 -175 -192 -228 -250 -140 -151 -134 -138
-106 -221 61 -187 -20 -379 -197 -466 -52 -25 -69 -28 -158 -28 -92 0 -105 2
-165 32 -55 27 -140 92 -140 108 0 2 -13 25 -29 49 -33 52 -56 150 -48 201 4
24 1 40 -11 54 -14 15 -541 303 -1047 571 -44 23 -322 172 -617 331 -295 159
-543 289 -552 289 -8 0 -23 -12 -33 -26 -107 -157 -265 -229 -419 -191 -36 9
-93 33 -126 53 -44 27 -64 34 -78 28 -10 -5 -85 -92 -165 -194 -81 -102 -247
-310 -369 -464 -121 -153 -321 -405 -444 -560 -123 -154 -338 -425 -478 -601
-139 -176 -286 -360 -324 -410 -76 -96 -136 -172 -283 -355 -219 -274 -234
-299 -205 -328 14 -14 60 -16 74 -3 5 5 54 33 109 63 101 56 336 189 455 258
36 21 166 95 290 165 124 70 250 142 280 160 50 30 288 165 400 227 60 33 318
181 400 228 168 97 259 149 307 175 29 15 50 32 46 38 -3 6 -1 7 5 3 9 -6 43
9 72 32 3 2 7 45 10 96 5 78 11 103 38 158 115 235 431 284 610 95 62 -66 87
-115 102 -198 21 -116 10 -104 180 -181 85 -38 209 -93 275 -123 66 -29 199
-88 295 -131 96 -42 198 -87 225 -99 28 -12 88 -39 135 -60 47 -21 112 -50
145 -65 301 -136 458 -201 474 -195 10 3 26 24 36 46 27 59 118 147 184 177
49 23 69 27 156 27 88 0 107 -4 158 -27 35 -16 80 -50 112 -83 31 -31 63 -55
75 -55 11 0 136 86 278 192 254 189 391 292 1243 927 240 180 645 481 900 671
255 190 576 429 714 532 137 103 256 188 264 188 8 0 141 -73 295 -162 396
-228 757 -435 1071 -615 149 -86 274 -159 278 -163 9 -8 -13 -50 -26 -50 -4 0
-81 42 -171 94 -90 52 -302 174 -472 272 -170 97 -383 220 -474 272 -397 228
-476 272 -495 272 -11 0 -180 -120 -375 -266 -195 -146 -422 -315 -505 -377
-208 -154 -383 -285 -425 -317 -19 -14 -78 -58 -130 -97 -52 -38 -266 -198
-475 -353 -510 -381 -951 -709 -1231 -918 l-232 -173 -3 -122 c-4 -111 -7
-127 -33 -176 -40 -77 -74 -117 -131 -155 -156 -105 -356 -81 -487 58 -45 48
-87 144 -96 220 -6 46 -15 73 -28 85 -10 10 -64 37 -119 60 -55 24 -197 86
-315 138 -241 106 -295 130 -530 233 -202 89 -576 253 -649 286 -81 36 -94 33
-130 -30 -67 -116 -180 -186 -312 -194 -135 -8 -245 43 -327 151 -32 42 -50
57 -68 57 -30 0 -30 -7 -2 -39 l23 -26 -30 26 -30 27 -335 -192 c-402 -230
-1191 -681 -1240 -708 -19 -11 -94 -54 -167 -97 -73 -42 -145 -83 -160 -91
-68 -37 -229 -129 -358 -205 -252 -148 -289 -165 -345 -165 l-50 0 0 263 c0
210 4 288 20 392 19 124 36 240 115 765 19 129 51 341 70 470 20 129 49 325
65 435 16 110 45 304 64 430 19 127 60 399 90 605 31 206 60 402 66 435 5 33
23 155 40 270 17 116 43 296 59 400 16 105 43 285 60 400 54 362 91 606 107
705 13 84 53 358 170 1140 82 552 94 637 129 865 26 169 34 245 27 260 -7 15
-29 26 -73 39 -116 31 -198 102 -252 216 -16 33 -22 70 -25 137 -4 87 -2 96
28 163 74 160 240 250 408 220 80 -14 130 -39 189 -93 56 -51 86 -98 109 -166
9 -29 24 -56 34 -61 17 -9 238 2 620 30 74 5 290 19 480 30 408 24 780 48 868
56 l63 6 29 58 c72 143 191 220 340 222 184 1 329 -111 376 -292 14 -56 15
-76 4 -145 l-12 -79 44 -41 c24 -22 86 -74 137 -115 52 -41 162 -131 246 -200
84 -69 210 -172 280 -229 75 -61 136 -103 148 -103 12 0 45 10 72 22 32 14 79
24 132 27 46 3 87 11 93 18 5 6 37 130 70 276 100 430 150 648 176 759 152
646 153 652 135 675 -15 18 -15 19 0 7 21 -16 24 -9 48 108 10 47 38 167 61
267 l44 183 -62 64 c-90 93 -117 156 -116 271 1 125 27 190 108 270 81 80 157
110 271 109 106 -1 185 -36 273 -123 35 -33 65 -61 68 -61 2 0 57 11 122 25
64 14 299 64 522 111 389 81 529 111 725 154 50 11 232 49 405 86 173 37 329
70 345 74 37 9 41 6 48 -26z m1012 -1604 c10 -11 16 -20 13 -20 -3 0 -13 9
-23 20 -10 11 -16 20 -13 20 3 0 13 -9 23 -20z m-3765 -15 c13 -14 21 -25 18
-25 -2 0 -15 11 -28 25 -13 14 -21 25 -18 25 2 0 15 -11 28 -25z m-4865 -2445
c10 -11 16 -20 13 -20 -3 0 -13 9 -23 20 -10 11 -16 20 -13 20 3 0 13 -9 23
-20z m8230 -900 c10 -11 16 -20 13 -20 -3 0 -13 9 -23 20 -10 11 -16 20 -13
20 3 0 13 -9 23 -20z m215 -43 c0 -2 -15 -16 -32 -33 l-33 -29 29 33 c28 30
36 37 36 29z m-110 -110 c0 -2 -17 -19 -37 -38 l-38 -34 34 38 c33 34 41 42
41 34z m-170 -171 c0 -2 -8 -10 -17 -17 -16 -13 -17 -12 -4 4 13 16 21 21 21
13z m-80 -80 c0 -2 -8 -10 -17 -17 -16 -13 -17 -12 -4 4 13 16 21 21 21 13z
m-80 -79 c0 -2 -15 -16 -32 -33 l-33 -29 29 33 c28 30 36 37 36 29z m-6589
-34 c13 -16 12 -17 -3 -4 -10 7 -18 15 -18 17 0 8 8 3 21 -13z m6519 -36 c0
-2 -12 -14 -27 -28 l-28 -24 24 28 c23 25 31 32 31 24z m-80 -80 c0 -2 -10
-12 -22 -23 l-23 -19 19 23 c18 21 26 27 26 19z m-200 -201 c0 -2 -8 -10 -17
-17 -16 -13 -17 -12 -4 4 13 16 21 21 21 13z m-2089 -93 c13 -16 12 -17 -3 -4
-10 7 -18 15 -18 17 0 8 8 3 21 -13z m1989 -6 c0 -2 -17 -19 -37 -38 l-38 -34
34 38 c33 34 41 42 41 34z m-5550 -1850 c0 -2 -10 -12 -22 -23 l-23 -19 19 23
c18 21 26 27 26 19z m7270 -90 c0 -2 -10 -12 -22 -23 l-23 -19 19 23 c18 21
26 27 26 19z m-3660 -20 c0 -2 -10 -12 -22 -23 l-23 -19 19 23 c18 21 26 27
26 19z m-80 -80 c0 -2 -10 -12 -22 -23 l-23 -19 19 23 c18 21 26 27 26 19z
m-260 -260 c0 -2 -10 -12 -22 -23 l-23 -19 19 23 c18 21 26 27 26 19z m-3500
-1282 c52 -52 92 -95 90 -95 -3 0 -48 43 -100 95 -52 52 -92 95 -90 95 3 0 48
-43 100 -95z m3601 58 c13 -16 12 -17 -3 -4 -10 7 -18 15 -18 17 0 8 8 3 21
-13z"/>
<path d="M6847 11240 c-81 -21 -162 -76 -201 -139 -88 -140 -68 -313 50 -420
119 -109 277 -122 407 -32 48 33 100 95 102 122 1 9 8 25 16 35 10 12 14 44
14 113 0 112 -19 160 -87 229 -77 78 -202 116 -301 92z m171 -119 c77 -39 122
-115 122 -206 0 -205 -254 -303 -388 -150 -67 76 -80 166 -36 253 58 116 189
161 302 103z m142 -385 c0 -2 -8 -10 -17 -17 -16 -13 -17 -12 -4 4 13 16 21
21 21 13z"/>
<path d="M4602 9386 c-251 -63 -336 -374 -152 -554 89 -87 228 -115 345 -71
80 30 154 104 184 184 19 49 22 74 19 140 -5 94 -27 143 -95 216 -72 78 -194
112 -301 85z m127 -97 c65 -14 144 -85 160 -144 19 -69 13 -127 -16 -185 -38
-73 -92 -110 -172 -117 -82 -8 -138 14 -191 74 -66 75 -78 163 -35 250 30 60
81 102 145 119 57 16 51 16 109 3z"/>
<path d="M1811 9310 c-101 -21 -192 -94 -232 -185 -45 -102 -32 -239 32 -332
87 -126 269 -169 412 -98 113 56 168 144 175 276 4 78 2 92 -23 148 -42 93
-164 195 -212 177 -8 -3 -11 -1 -8 4 3 6 -2 10 -12 10 -10 0 -34 2 -53 4 -19
3 -55 1 -79 -4z m131 -104 c43 -9 111 -68 136 -116 42 -85 25 -200 -41 -262
-126 -118 -320 -74 -373 85 -32 96 5 210 86 263 45 30 129 54 150 43 8 -4 27
-10 42 -13z"/>
<path d="M5976 8210 c-107 -45 -187 -151 -202 -267 -13 -106 37 -222 128 -293
63 -51 107 -65 203 -65 67 0 89 4 136 28 66 32 132 99 162 165 17 36 22 66 22
132 0 74 -4 92 -29 140 -37 73 -75 111 -144 146 -76 39 -201 45 -276 14z m211
-93 c39 -14 98 -68 118 -108 79 -152 -49 -341 -221 -327 -138 12 -240 153
-205 284 14 52 74 122 125 145 47 21 134 24 183 6z"/>
<path d="M3456 7284 c-138 -44 -227 -168 -225 -317 0 -68 19 -133 36 -130 6 1
9 -6 6 -17 -7 -28 78 -114 146 -147 46 -22 70 -27 136 -27 68 -1 89 3 137 27
205 101 251 368 91 531 -79 81 -218 115 -327 80z m244 -27 c0 -2 -12 -14 -27
-28 l-28 -24 24 28 c23 25 31 32 31 24z m-54 -78 c115 -55 164 -186 113 -299
-25 -56 -53 -86 -104 -113 -52 -26 -146 -28 -195 -3 -41 22 -100 75 -100 92 0
6 -6 17 -13 23 -22 18 -21 133 1 183 52 117 189 170 298 117z"/>
<path d="M6375 5017 c-66 -22 -99 -43 -144 -92 -127 -138 -118 -345 19 -469
64 -58 121 -79 215 -80 68 -1 88 3 137 27 67 33 130 94 161 157 33 67 36 186
6 264 -27 72 -97 147 -166 177 -60 26 -174 34 -228 16z m180 -106 c88 -39 135
-114 135 -211 0 -129 -94 -224 -225 -224 -78 -1 -138 31 -182 97 -64 95 -53
208 27 288 69 69 162 88 245 50z"/>
<path d="M3468 4466 c-105 -38 -182 -112 -214 -208 -24 -73 -16 -187 19 -254
65 -128 216 -202 353 -174 102 21 185 85 236 182 18 36 22 59 23 138 0 85 -3
100 -28 149 -59 112 -169 181 -287 181 -36 -1 -81 -7 -102 -14z m187 -105 c88
-40 143 -137 132 -233 -13 -109 -87 -187 -194 -204 -125 -20 -252 94 -252 226
-1 165 167 278 314 211z"/>
<path d="M6435 3048 c-56 -21 -107 -58 -101 -74 3 -9 2 -12 -5 -9 -15 10 -48
-23 -78 -80 -23 -44 -26 -61 -26 -150 0 -86 3 -106 24 -145 30 -57 27 -55 48
-39 16 13 17 12 4 -4 -13 -16 -11 -21 19 -52 18 -18 59 -45 92 -60 108 -49
261 -25 345 52 13 13 21 28 17 35 -4 6 -3 8 4 4 15 -9 48 37 72 102 56 149
-19 331 -166 403 -38 19 -68 24 -134 26 -47 1 -98 -3 -115 -9z m176 -98 c68
-23 114 -66 141 -133 59 -146 -50 -306 -210 -307 -62 0 -106 16 -154 58 -28
25 -37 29 -48 19 -12 -10 -12 -9 -2 4 10 13 9 24 -3 52 -19 45 -19 137 -2 180
36 84 102 130 210 146 4 0 35 -8 68 -19z m140 -397 c13 -16 12 -17 -3 -4 -17
13 -22 21 -14 21 2 0 10 -8 17 -17z"/>
<path d="M3772 2710 c-59 -12 -137 -57 -174 -99 -87 -98 -110 -249 -56 -363
35 -76 104 -140 179 -168 122 -46 274 -9 358 86 65 74 76 106 76 219 0 87 -3
106 -25 149 -65 127 -222 204 -358 176z m176 -124 c40 -21 88 -77 102 -121 20
-60 9 -156 -23 -204 -92 -139 -308 -132 -386 14 -58 109 -23 241 84 311 51 33
159 33 223 0z"/>
<path d="M6235 1787 c-101 -34 -163 -85 -208 -171 -29 -55 -32 -70 -32 -146 1
-77 4 -91 34 -148 61 -112 159 -174 280 -174 104 -1 164 24 237 96 78 78 98
133 92 250 -5 95 -25 141 -90 206 -80 80 -218 118 -313 87z m182 -116 c98 -50
148 -157 119 -255 -44 -147 -203 -215 -329 -141 -55 32 -90 79 -107 145 -48
182 148 338 317 251z"/>
</g>
</svg>
